<svg width="40" height="40" viewBox="0 0 60 60" fill="none" xmlns="http://www.w3.org/2000/svg">
<mask id="mask0_21_19" style="mask-type:luminance" maskUnits="userSpaceOnUse" x="0" y="0" width="60" height="60">
<path fill-rule="evenodd" clip-rule="evenodd" d="M0 30C0 13.4315 13.4315 0 30 0C46.5685 0 60 13.4315 60 30C60 46.5685 46.5685 60 30 60C13.4315 60 0 46.5685 0 30Z" fill="white"/>
</mask>
<g mask="url(#mask0_21_19)">
<path fill-rule="evenodd" clip-rule="evenodd" d="M0 30C0 13.4315 13.4315 0 30 0C46.5685 0 60 13.4315 60 30C60 46.5685 46.5685 60 30 60C13.4315 60 0 46.5685 0 30Z" fill="#5B65EA"/>
</g>
<path d="M42.4755 17.9489C40.181 16.9107 37.7205 16.1458 35.1478 15.7077C35.101 15.6993 35.0542 15.7204 35.03 15.7626C34.7136 16.3177 34.3631 17.0417 34.1176 17.6108C31.3506 17.2023 28.5977 17.2023 25.8875 17.6108C25.642 17.029 25.2787 16.3177 24.9609 15.7626C24.9367 15.7218 24.8899 15.7007 24.8431 15.7077C22.2719 16.1444 19.8113 16.9093 17.5154 17.9489C17.4955 17.9574 17.4785 17.9714 17.4672 17.9898C12.8001 24.8655 11.5216 31.5721 12.1488 38.1957C12.1516 38.2281 12.1701 38.2591 12.1956 38.2788C15.2748 40.5087 18.2575 41.8624 21.1849 42.7598C21.2318 42.7739 21.2814 42.757 21.3112 42.7189C22.0037 41.7864 22.6209 40.8031 23.1502 39.7692C23.1814 39.7086 23.1517 39.6368 23.0878 39.6128C22.1087 39.2466 21.1764 38.8 20.2796 38.2929C20.2087 38.252 20.203 38.152 20.2683 38.1041C20.457 37.9647 20.6457 37.8196 20.8259 37.6731C20.8586 37.6463 20.904 37.6407 20.9423 37.6576C26.8339 40.3101 33.2123 40.3101 39.0345 37.6576C39.0728 37.6393 39.1182 37.6449 39.1522 37.6717C39.3324 37.8182 39.5212 37.9647 39.7113 38.1041C39.7766 38.152 39.7723 38.252 39.7014 38.2929C38.8046 38.8099 37.8723 39.2466 36.8918 39.6114C36.8279 39.6353 36.7995 39.7086 36.8308 39.7692C37.3714 40.8017 37.9887 41.785 38.6683 42.7175C38.6967 42.757 38.7478 42.7739 38.7946 42.7598C41.7362 41.8624 44.7189 40.5087 47.7982 38.2788C47.8251 38.2591 47.8421 38.2295 47.845 38.1971C48.5956 30.5396 46.5878 23.8878 42.5223 17.9912C42.5124 17.9714 42.4954 17.9574 42.4755 17.9489ZM24.03 34.1627C22.2563 34.1627 20.7947 32.5568 20.7947 30.5847C20.7947 28.6125 22.2279 27.0066 24.03 27.0066C25.8463 27.0066 27.2937 28.6266 27.2653 30.5847C27.2653 32.5568 25.8321 34.1627 24.03 34.1627ZM35.9921 34.1627C34.2184 34.1627 32.7568 32.5568 32.7568 30.5847C32.7568 28.6125 34.19 27.0066 35.9921 27.0066C37.8084 27.0066 39.2558 28.6266 39.2274 30.5847C39.2274 32.5568 37.8084 34.1627 35.9921 34.1627Z" fill="white"/>
</svg>
