<svg width="40" height="40" viewBox="0 0 40 40" fill="none" xmlns="http://www.w3.org/2000/svg">
<path d="M20 40C31.0457 40 40 31.0457 40 20C40 8.9543 31.0457 0 20 0C8.9543 0 0 8.9543 0 20C0 31.0457 8.9543 40 20 40Z" fill="url(#paint0_linear_11_4209)"/>
<path d="M16.3332 29.1667C15.6852 29.1667 15.7953 28.9221 15.5719 28.3051L13.6665 22.0344L28.3332 13.3334" fill="#C8DAEA"/>
<path d="M16.3335 29.1667C16.8335 29.1667 17.0544 28.938 17.3335 28.6667L20.0002 26.0737L16.6738 24.0679" fill="#A9C9DD"/>
<path d="M16.6735 24.0683L24.7335 30.0232C25.6533 30.5306 26.3171 30.2679 26.5462 29.1692L29.827 13.7087C30.1629 12.362 29.3137 11.7512 28.4338 12.1507L9.16879 19.5792C7.85378 20.1067 7.86144 20.8403 8.92909 21.1672L13.8729 22.7103L25.3184 15.4894C25.8587 15.1618 26.3546 15.3379 25.9476 15.6992" fill="url(#paint1_linear_11_4209)"/>
<defs>
<linearGradient id="paint0_linear_11_4209" x1="15.002" y1="1.668" x2="5.002" y2="25" gradientUnits="userSpaceOnUse">
<stop stop-color="#37AEE2"/>
<stop offset="1" stop-color="#1E96C8"/>
</linearGradient>
<linearGradient id="paint1_linear_11_4209" x1="17.4965" y1="21.2285" x2="19.6335" y2="28.141" gradientUnits="userSpaceOnUse">
<stop stop-color="#EFF7FC"/>
<stop offset="1" stop-color="white"/>
</linearGradient>
</defs>
</svg>
