<svg width="40" height="40" viewBox="0 0 40 40" fill="none" xmlns="http://www.w3.org/2000/svg">
<path d="M0 20C0 8.9543 8.9543 0 20 0C31.0457 0 40 8.9543 40 20C40 31.0457 31.0457 40 20 40C8.9543 40 0 31.0457 0 20Z" fill="#F63829"/>
<path d="M30.221 15.061C29.9757 14.1185 29.2528 13.3763 28.3348 13.1244C26.6713 12.6666 20.0002 12.6666 20.0002 12.6666C20.0002 12.6666 13.329 12.6666 11.6654 13.1244C10.7474 13.3763 10.0245 14.1185 9.77919 15.061C9.3335 16.7692 9.3335 20.3333 9.3335 20.3333C9.3335 20.3333 9.3335 23.8973 9.77919 25.6056C10.0245 26.5481 10.7474 27.2903 11.6654 27.5423C13.329 28 20.0002 28 20.0002 28C20.0002 28 26.6713 28 28.3348 27.5423C29.2528 27.2903 29.9757 26.5481 30.221 25.6056C30.6668 23.8973 30.6668 20.3333 30.6668 20.3333C30.6668 20.3333 30.6668 16.7692 30.221 15.061Z" fill="white"/>
<path d="M18 24V17.3334L23.3333 20.6668L18 24Z" fill="#F63829"/>
</svg>
