<svg width="48" height="48" viewBox="0 0 48 48" fill="none" xmlns="http://www.w3.org/2000/svg">
<path d="M24 32V24M24 16H24.02M4 17.0455V30.9545C4 31.4437 4 31.6883 4.05526 31.9185C4.10425 32.1225 4.18506 32.3176 4.29472 32.4966C4.4184 32.6984 4.59136 32.8714 4.93726 33.2173L14.7827 43.0627C15.1286 43.4086 15.3016 43.5816 15.5034 43.7053C15.6824 43.8149 15.8775 43.8957 16.0815 43.9447C16.3117 44 16.5563 44 17.0455 44H30.9545C31.4437 44 31.6883 44 31.9185 43.9447C32.1225 43.8957 32.3176 43.8149 32.4966 43.7053C32.6984 43.5816 32.8714 43.4086 33.2173 43.0627L43.0627 33.2173C43.4086 32.8714 43.5816 32.6984 43.7053 32.4966C43.8149 32.3176 43.8957 32.1225 43.9447 31.9185C44 31.6883 44 31.4437 44 30.9545V17.0455C44 16.5563 44 16.3117 43.9447 16.0815C43.8957 15.8775 43.8149 15.6824 43.7053 15.5034C43.5816 15.3016 43.4086 15.1286 43.0627 14.7827L33.2173 4.93726C32.8714 4.59135 32.6984 4.4184 32.4966 4.29472C32.3176 4.18506 32.1225 4.10425 31.9185 4.05526C31.6883 4 31.4437 4 30.9545 4H17.0455C16.5563 4 16.3117 4 16.0815 4.05526C15.8775 4.10425 15.6824 4.18506 15.5034 4.29472C15.3016 4.4184 15.1286 4.59136 14.7827 4.93726L4.93726 14.7827C4.59135 15.1286 4.4184 15.3016 4.29472 15.5034C4.18506 15.6824 4.10425 15.8775 4.05526 16.0815C4 16.3117 4 16.5563 4 17.0455Z" stroke="currentColor" stroke-width="4" stroke-linecap="round" stroke-linejoin="round"/>
</svg>
