<svg width="48" height="48" viewBox="0 0 48 48" fill="none" xmlns="http://www.w3.org/2000/svg">
<path d="M13 40H10C7.79086 40 6 38.2091 6 36V8C6 5.79086 7.79086 4 10 4H38C40.2091 4 42 5.79086 42 8V36C42 38.2091 40.2091 40 38 40H35M24 38C27.3137 38 30 35.3137 30 32C30 28.6863 27.3137 26 24 26C20.6863 26 18 28.6863 18 32C18 35.3137 20.6863 38 24 38ZM24 38L24.0429 37.9996L17.6573 44.3851L12.0005 38.7283L18.0393 32.6895M24 38L30.3856 44.3851L36.0425 38.7283L30.0037 32.6895M18 12H30M14 19H34" stroke="currentColor" stroke-width="4" stroke-linecap="round" stroke-linejoin="round"/>
</svg>
