<svg width="48" height="48" viewBox="0 0 48 48" fill="none" xmlns="http://www.w3.org/2000/svg">
<path d="M14 23.9999L4 28.9999L23.2845 38.6421C23.5468 38.7733 23.678 38.8389 23.8156 38.8647C23.9375 38.8876 24.0625 38.8876 24.1844 38.8647C24.322 38.8389 24.4532 38.7733 24.7155 38.6421L44 28.9999L34 23.9999M4 18.9999L23.2845 9.35766C23.5468 9.22647 23.678 9.16088 23.8156 9.13507C23.9375 9.1122 24.0625 9.1122 24.1844 9.13507C24.322 9.16088 24.4532 9.22647 24.7155 9.35766L44 18.9999L24.7155 28.6421C24.4532 28.7733 24.322 28.8389 24.1844 28.8647C24.0625 28.8876 23.9375 28.8876 23.8156 28.8647C23.678 28.8389 23.5468 28.7733 23.2845 28.6421L4 18.9999Z" stroke="currentColor" stroke-width="4" stroke-linecap="round" stroke-linejoin="round"/>
</svg>
