<svg width="48" height="48" viewBox="0 0 48 48" fill="none" xmlns="http://www.w3.org/2000/svg">
<path d="M21 4.00559C19.6499 4.02389 18.8394 4.10205 18.184 4.43597C17.4314 4.81947 16.8195 5.43139 16.436 6.18404C16.1021 6.8394 16.0239 7.6499 16.0056 9M39 4.00559C40.3501 4.02389 41.1606 4.10205 41.816 4.43597C42.5686 4.81947 43.1805 5.43139 43.564 6.18404C43.8979 6.83939 43.9761 7.64989 43.9944 8.99998M43.9944 27C43.9761 28.3501 43.898 29.1606 43.564 29.816C43.1805 30.5686 42.5686 31.1805 41.816 31.564C41.1606 31.8979 40.3501 31.9761 39 31.9944M44 16V20M28.0001 4H31.9999M10.4 44H25.6C27.8402 44 28.9603 44 29.816 43.564C30.5686 43.1805 31.1805 42.5686 31.564 41.816C32 40.9603 32 39.8402 32 37.6V22.4C32 20.1598 32 19.0397 31.564 18.184C31.1805 17.4314 30.5686 16.8195 29.816 16.436C28.9603 16 27.8402 16 25.6 16H10.4C8.15979 16 7.03968 16 6.18404 16.436C5.43139 16.8195 4.81947 17.4314 4.43597 18.184C4 19.0397 4 20.1598 4 22.4V37.6C4 39.8402 4 40.9603 4.43597 41.816C4.81947 42.5686 5.43139 43.1805 6.18404 43.564C7.03968 44 8.15979 44 10.4 44Z" stroke="currentColor" stroke-width="4" stroke-linecap="round" stroke-linejoin="round"/>
</svg>
