<svg width="48" height="48" viewBox="0 0 48 48" fill="none" xmlns="http://www.w3.org/2000/svg">
<path d="M12 12L16 8M16 8L12 4M16 8H12C7.58172 8 4 11.5817 4 16M36 36L32 40M32 40L36 44M32 40H36C40.4183 40 44 36.4183 44 32M26.8343 26.8343C28.3989 27.5816 30.1506 28 32 28C38.6274 28 44 22.6274 44 16C44 9.37258 38.6274 4 32 4C25.3726 4 20 9.37258 20 16C20 17.8494 20.4184 19.6011 21.1657 21.1657M28 32C28 38.6274 22.6274 44 16 44C9.37258 44 4 38.6274 4 32C4 25.3726 9.37258 20 16 20C22.6274 20 28 25.3726 28 32Z" stroke="currentColor" stroke-width="4" stroke-linecap="round" stroke-linejoin="round"/>
</svg>
