<svg width="48" height="48" viewBox="0 0 48 48" fill="none" xmlns="http://www.w3.org/2000/svg">
<path d="M12 12L21 21M12 12H6L4 6L6 4L12 6V12ZM38.518 5.48203L33.2627 10.7373C32.4707 11.5293 32.0747 11.9253 31.9263 12.382C31.7958 12.7837 31.7958 13.2163 31.9263 13.618C32.0747 14.0747 32.4707 14.4707 33.2627 15.2627L33.7373 15.7373C34.5293 16.5293 34.9253 16.9253 35.382 17.0737C35.7837 17.2042 36.2163 17.2042 36.618 17.0737C37.0747 16.9253 37.4707 16.5293 38.2627 15.7373L43.1786 10.8214C43.708 12.1098 44 13.5208 44 15C44 21.0751 39.0751 26 33 26C32.2676 26 31.5519 25.9284 30.8595 25.7919C29.8872 25.6001 29.4011 25.5042 29.1064 25.5336C28.7931 25.5648 28.6386 25.6118 28.361 25.7604C28.0999 25.9001 27.8379 26.1621 27.3141 26.6859L13 41C11.3431 42.6568 8.65686 42.6568 7 41C5.34315 39.3431 5.34315 36.6568 7 35L21.3141 20.6859C21.8379 20.1621 22.0999 19.9001 22.2396 19.639C22.3882 19.3614 22.4352 19.2069 22.4664 18.8936C22.4958 18.5989 22.3999 18.1128 22.2081 17.1405C22.0716 16.4481 22 15.7324 22 15C22 8.92487 26.9249 4 33 4C35.011 4 36.896 4.53965 38.518 5.48203ZM24.0001 29.9999L35 40.9998C36.6568 42.6566 39.3431 42.6566 41 40.9998C42.6568 39.3429 42.6568 36.6566 41 34.9998L31.9506 25.9506C31.31 25.89 30.6854 25.7744 30.0816 25.6087C29.3034 25.3951 28.4499 25.5501 27.8793 26.1207L24.0001 29.9999Z" stroke="currentColor" stroke-width="4" stroke-linecap="round" stroke-linejoin="round"/>
</svg>
